<?xml version="1.0" encoding="UTF-8"?>
<svg xmlns="http://www.w3.org/2000/svg" width="46" height="48" viewBox="0 0 46 48" fill="none">
  <g clip-path="url(#clip0_61_2528)">
    <path d="M33.9645 36.5806C32.2111 38.3341 32.2111 41.1875 33.9645 42.941C34.8412 43.8177 35.9925 44.257 37.1438 44.257C38.295 44.257 39.4463 43.8195 40.323 42.941C42.0764 41.1875 42.0764 38.3341 40.323 36.5806C38.5696 34.8272 35.7161 34.8272 33.9645 36.5806ZM39.1004 41.7165C38.0223 42.7946 36.2689 42.7946 35.1908 41.7165C34.1128 40.6385 34.1128 38.885 35.1908 37.807C35.7307 37.2688 36.4372 36.998 37.1456 36.998C37.8539 36.998 38.5604 37.267 39.1004 37.807C40.1784 38.885 40.1784 40.6385 39.1004 41.7165Z" fill="#CA9FA9"></path>
    <path d="M33.9662 32.1659C33.6551 32.2959 33.3311 32.2446 33.1206 32.0341L28.9402 27.8537C28.7334 27.6469 28.7316 27.3467 28.748 27.1856C28.8395 26.3455 28.6766 25.4706 28.2795 24.5866C28.9603 24.4328 29.5753 24.1107 30.064 23.6202L43.0922 10.592C45.7937 7.89047 46.319 3.71003 44.3698 0.422784C44.2325 0.192164 43.9982 0.0384175 43.7328 0.00547182C43.4674 -0.0274738 43.202 0.0622116 43.0135 0.252564L24.8568 18.4093C24.401 18.865 24.0899 19.4288 23.9233 20.0511C23.1125 19.6338 22.298 19.405 21.5146 19.3794C21.3334 18.8925 21.0515 18.4532 20.6818 18.0835L3.03027 0.437426C2.83992 0.247073 2.56903 0.157388 2.31095 0.190334C2.04556 0.223279 1.80945 0.377026 1.674 0.607645C-0.277111 3.89306 0.25002 8.07533 2.95156 10.7769L15.4709 23.2962C15.8406 23.6659 16.2799 23.9478 16.7668 24.129C16.7961 25.079 17.1274 26.0673 17.7277 27.0465L12.9231 31.8511C12.7126 32.0616 12.3887 32.1129 12.0775 31.9829C8.98062 30.6852 5.44445 31.3789 3.07237 33.751C1.41593 35.4056 0.54104 37.6953 0.670992 40.0345C0.800945 42.3718 1.93025 44.5572 3.77338 46.0306C5.26325 47.2221 7.07892 47.8169 8.8946 47.8169C10.7103 47.8169 12.6065 47.1965 14.1128 45.9573C16.9681 43.6091 17.918 39.7508 16.4739 36.3555C16.3531 36.0737 16.3989 35.7771 16.5911 35.585L21.5128 30.6614C22.5542 31.2251 23.5847 31.4722 24.5676 31.3643C24.7286 31.3459 25.0288 31.3496 25.2356 31.5564L29.449 35.7698C29.6394 35.9602 29.6851 36.2622 29.5662 36.5404C28.1221 39.9338 29.072 43.7939 31.9273 46.1422C33.4336 47.3813 35.2896 48.0018 37.1455 48.0018C39.0014 48.0018 40.7787 47.407 42.2667 46.2154C44.1099 44.742 45.2392 42.5566 45.3691 40.2193C45.4991 37.8802 44.6242 35.5904 42.9677 33.9358C40.5956 31.5638 37.0613 30.8719 33.9626 32.1678L33.9662 32.1659ZM25.5376 20.732C25.5999 20.3073 25.7866 19.9284 26.0794 19.6356L43.3759 2.33912C44.2892 4.74233 43.7328 7.50061 41.8659 9.36753L28.8377 22.3957C28.5467 22.6867 28.166 22.8753 27.7413 22.9357C27.6041 22.9558 27.4814 23.0089 27.3753 23.0839C27.0623 22.6648 26.7036 22.2456 26.2881 21.8301C26.0026 21.5446 25.7134 21.292 25.4205 21.0541C25.4791 20.9571 25.5193 20.8491 25.5358 20.7301L25.5376 20.732ZM15.3666 34.3605C14.6747 35.0523 14.4825 36.1029 14.8797 37.0346C16.02 39.716 15.2696 42.7635 13.011 44.6194C10.6975 46.5211 7.19057 46.5485 4.85326 44.678C3.37254 43.4937 2.50131 41.8099 2.39698 39.9374C2.29448 38.0907 2.98634 36.2805 4.29318 34.9736C6.1656 33.1012 8.955 32.554 11.404 33.5789C12.3594 33.9779 13.4356 33.7821 14.1421 33.0738L18.7765 28.4394C18.9156 28.595 19.0565 28.7506 19.2102 28.9043C19.4903 29.1843 19.7722 29.4333 20.054 29.6675L15.3629 34.3605H15.3666ZM43.6413 40.1223C43.537 41.9947 42.6657 43.6786 41.185 44.8628C38.8495 46.7316 35.3408 46.7059 33.0273 44.8042C30.7705 42.9483 30.0201 39.899 31.1585 37.2194C31.5557 36.2878 31.3635 35.239 30.6717 34.5453L26.4583 30.332C26.0025 29.8762 25.3693 29.6255 24.6866 29.6255C24.5859 29.6255 24.4816 29.6309 24.3791 29.6419C23.2278 29.7664 21.8258 29.069 20.4366 27.6798C19.0199 26.2632 18.339 24.8117 18.5202 23.5964C18.5532 23.3694 18.4964 23.137 18.3592 22.9521C18.2219 22.7673 18.0169 22.6446 17.7881 22.6117C17.3635 22.5495 16.9828 22.3628 16.6917 22.0699L4.17604 9.55239C2.30912 7.68364 1.75271 4.92536 2.66604 2.52215L5.32548 5.1816L4.13761 6.36948C3.799 6.70808 3.799 7.25535 4.13761 7.59396C4.306 7.76235 4.5293 7.84837 4.75076 7.84837C4.97223 7.84837 5.1937 7.76418 5.36392 7.59396L6.55179 6.40608L7.36811 7.2224L5.98806 8.60246C5.64945 8.94107 5.64945 9.48833 5.98806 9.82694C6.15645 9.99533 6.37974 10.0814 6.60121 10.0814C6.82268 10.0814 7.04415 9.99716 7.21437 9.82694L8.59442 8.44688L9.41074 9.2632L8.03069 10.6433C7.69208 10.9819 7.69208 11.5291 8.03069 11.8677C8.19908 12.0361 8.42237 12.1222 8.64384 12.1222C8.86531 12.1222 9.08678 12.038 9.257 11.8677L10.6371 10.4877L11.4534 11.304L10.0733 12.6841C9.73471 13.0227 9.73471 13.5699 10.0733 13.9085C10.2417 14.0769 10.465 14.163 10.6865 14.163C10.9079 14.163 11.1294 14.0788 11.2996 13.9085L12.6797 12.5285L13.496 13.3448L12.1159 14.7249C11.7773 15.0635 11.7773 15.6107 12.1159 15.9493C12.2843 16.1177 12.5076 16.2038 12.7291 16.2038C12.9506 16.2038 13.172 16.1196 13.3423 15.9493L14.7223 14.5693L15.5386 15.3856L14.1586 16.7657C13.82 17.1043 13.82 17.6515 14.1586 17.9901C14.327 18.1585 14.5503 18.2446 14.7717 18.2446C14.9932 18.2446 15.2147 18.1604 15.3849 17.9901L16.7649 16.6101L17.5813 17.4264L16.2012 18.8065C15.8626 19.1451 15.8626 19.6923 16.2012 20.0309C16.3696 20.1993 16.5929 20.2854 16.8144 20.2854C17.0358 20.2854 17.2573 20.2012 17.4275 20.0309L18.8076 18.6509L19.4592 19.3025C19.752 19.5953 19.9387 19.9742 20.0009 20.3988C20.0339 20.6258 20.1565 20.8308 20.3414 20.9699C20.5262 21.1072 20.7587 21.1657 20.9857 21.131C22.1973 20.9516 23.6524 21.6306 25.0691 23.0473C26.4858 24.464 27.1556 25.8385 27.0312 26.9898C26.9452 27.7878 27.1959 28.5456 27.7212 29.069L31.9017 33.2495C32.6082 33.956 33.6825 34.1555 34.6398 33.7546C37.0888 32.7297 39.8782 33.2769 41.7506 35.1493C43.0574 36.4562 43.7493 38.2645 43.6468 40.1132L43.6413 40.1223Z" fill="#CA9FA9"></path>
    <path d="M5.71718 36.3977C3.96374 38.1511 3.96374 41.0046 5.71718 42.758C6.5939 43.6347 7.74517 44.074 8.89644 44.074C10.0477 44.074 11.199 43.6366 12.0757 42.758C13.8291 41.0046 13.8291 38.1511 12.0757 36.3977C10.3223 34.6442 7.46879 34.6442 5.71535 36.3977H5.71718ZM10.8512 41.5317C9.77316 42.6098 8.01972 42.6098 6.94166 41.5317C5.86361 40.4536 5.86361 38.7002 6.94166 37.6221C7.4816 37.084 8.18811 36.8131 8.89644 36.8131C9.60477 36.8131 10.3113 37.0822 10.8512 37.6221C11.9293 38.7002 11.9293 40.4536 10.8512 41.5317Z" fill="#CA9FA9"></path>
    <path d="M23.5941 25.0753C23.5703 25.024 23.541 24.971 23.5135 24.9252C23.4787 24.8794 23.444 24.8337 23.4037 24.7989C23.0852 24.4695 22.4977 24.4695 22.1792 24.7989C22.139 24.8337 22.1042 24.8794 22.0749 24.9252C22.0401 24.971 22.0108 25.024 21.9944 25.0753C21.9706 25.1265 21.9541 25.1851 21.9431 25.2364C21.9321 25.2949 21.9248 25.3517 21.9248 25.4047C21.9248 25.5201 21.9486 25.6354 21.9889 25.7397C22.0346 25.844 22.0987 25.9355 22.1792 26.0234C22.2598 26.1039 22.3586 26.168 22.4629 26.2083C22.5672 26.254 22.6752 26.2778 22.7924 26.2778C22.9095 26.2778 23.0175 26.254 23.1273 26.2083C23.2316 26.168 23.3232 26.1039 23.4055 26.0234C23.4861 25.9374 23.5501 25.844 23.5959 25.7397C23.6361 25.6354 23.6599 25.5201 23.6599 25.4047C23.6599 25.3535 23.6545 25.2949 23.6416 25.2364C23.6307 25.1851 23.6124 25.1265 23.5959 25.0753H23.5941Z" fill="#CA9FA9"></path>
  </g>
  <defs>
    <clipPath id="clip0_61_2528">
      <rect width="45.0422" height="48" fill="white" transform="translate(0.5)"></rect>
    </clipPath>
  </defs>
</svg>
